<svg version="1.1" viewBox="0.0 0.0 480.3490813648294 368.93438320209975" fill="none" stroke="none" stroke-linecap="square" stroke-miterlimit="10" xmlns:xlink="http://www.w3.org/1999/xlink" xmlns="http://www.w3.org/2000/svg"><clipPath id="p.0"><path d="m0 0l480.3491 0l0 368.9344l-480.3491 0l0 -368.9344z" clip-rule="nonzero"/></clipPath><g clip-path="url(#p.0)"><path fill="#000000" fill-opacity="0.0" d="m0 0l480.3491 0l0 368.9344l-480.3491 0z" fill-rule="evenodd"/><path fill="#000000" d="m202.71227 320.43613l0 0c-48.965576 0 -94.18196 -26.220825 -118.50278 -68.719376c-24.320808 -42.49855 -24.021656 -94.76674 0.7840195 -136.98412c24.80568 -42.21737 70.31924 -67.918915 119.28161 -67.35843l-0.92948914 81.197754l0 0c-19.842499 -0.22714233 -38.287308 10.188675 -48.340057 27.297684c-10.05275 17.109009 -10.173996 38.291214 -0.31773376 55.514175c9.856247 17.222961 28.180634 27.849213 48.02443 27.849213z" fill-rule="evenodd"/><path fill="#ffffff" d="m277.63876 48.498146l0 0c48.965607 0 94.18198 26.220833 118.50278 68.719376c24.320831 42.498543 24.021667 94.76673 -0.7840271 136.9841c-24.805664 42.217377 -70.319214 67.918915 -119.281586 67.35843l0.9294739 -81.197754l0 0c19.842499 0.22714233 38.287323 -10.188675 48.340088 -27.297684c10.052734 -17.109009 10.173981 -38.291214 0.3177185 -55.514175c-9.856262 -17.222961 -28.180634 -27.849213 -48.024445 -27.849213z" fill-rule="evenodd"/><path stroke="#000000" stroke-width="4.0" stroke-linejoin="round" stroke-linecap="butt" d="m277.63876 48.498146l0 0c48.965607 0 94.18198 26.220833 118.50278 68.719376c24.320831 42.498543 24.021667 94.76673 -0.7840271 136.9841c-24.805664 42.217377 -70.319214 67.918915 -119.281586 67.35843l0.9294739 -81.197754l0 0c19.842499 0.22714233 38.287323 -10.188675 48.340088 -27.297684c10.052734 -17.109009 10.173981 -38.291214 0.3177185 -55.514175c-9.856262 -17.222961 -28.180634 -27.849213 -48.024445 -27.849213z" fill-rule="evenodd"/><path fill="#cccccc" d="m129.7965 184.70876l0 0c0 -36.494293 29.584457 -66.07874 66.07875 -66.07874l86.17322 0l0 0c17.525177 0 34.33255 6.9618454 46.72473 19.354012c12.392151 12.392166 19.354004 29.199554 19.354004 46.72473l0 0l0 0c0 36.494278 -29.584442 66.078735 -66.078735 66.078735l-86.17322 0c-36.494293 0 -66.07875 -29.584457 -66.07875 -66.078735z" fill-rule="evenodd"/><path fill="#000000" fill-opacity="0.0" d="m88.88976 95.490814l296.47244 0l0 164.0315l-296.47244 0z" fill-rule="evenodd"/><path fill="#000000" d="m171.06349 227.37082l29.125 0q5.8125 -0.0625 11.28125 -1.8125q5.46875 -1.75 9.65625 -5.0625q4.1875 -3.25 6.6875 -8.125q2.5 -4.875 2.4375 -11.25q0 -4.0625 -1.21875 -7.5625q-1.21875 -3.5 -3.40625 -6.3125q-2.0625 -2.5625 -5.25 -4.6875q-3.1875 -2.125 -6.625 -2.9375l0 -0.1875q3.3125 -1.4375 5.65625 -3.0625q2.34375 -1.625 4.28125 -4.0q1.875 -2.3125 2.96875 -5.25q1.09375 -2.9375 1.15625 -6.5q0.0625 -6.375 -2.4375 -10.9375q-2.5 -4.5625 -6.6875 -7.5q-4.1875 -2.9375 -9.5625 -4.34375q-5.375 -1.40625 -11.0 -1.46875l-27.0625 0l0 91.0zm11.625 -42.5625l18.4375 0q3.6875 0.125 6.875 1.25q3.1875 1.125 5.5625 3.1875q2.375 2.125 3.71875 5.125q1.34375 3.0 1.28125 6.875q0 3.8125 -1.46875 6.8125q-1.46875 3.0 -3.96875 5.0625q-2.5 2.0625 -5.75 3.21875q-3.25 1.15625 -6.875 1.21875l-17.8125 0l0 -32.75zm0 -9.625l0 -28.9375l15.8125 0q3.375 0.0625 6.59375 0.875q3.21875 0.8125 5.71875 2.5q2.4375 1.75 3.90625 4.4375q1.46875 2.6875 1.46875 6.5q0 3.5625 -1.5 6.25q-1.5 2.6875 -3.9375 4.5q-2.4375 1.875 -5.5625 2.84375q-3.125 0.96875 -6.375 1.03125l-16.125 0zm70.0625 52.1875l11.874985 0l11.125 -64.6875l0.6875 -3.875l0.625 3.8125l11.0625 64.75l11.8125 0l11.0625 -91.0l-10.9375 0l-6.5625 62.625l-0.375 3.75l-0.6875 -3.6875l-11.0625 -62.6875l-10.0625 0l-11.0 62.625l-0.6875 3.75l-0.375 -3.625l-6.5624847 -62.75l-11.0 0l11.0625 91.0z" fill-rule="nonzero"/></g></svg>