# File units = meters
mtllib Field.mtl
g 3lber Cage
v 1.2192 -1.2192 0.1016 
v 1.2192 -1.2192 0.1266 
v 1.2192 1.2192 0.1266 
v 1.2192 1.2192 0.1016 
v -1.2192 -1.2192 0.1016 
v -1.2192 -1.2192 0.1266 
v -1.2192 1.2192 0.1016 
v -1.2192 1.2192 0.1266 
v -1.2942 -1.2192 0.1266 
v -1.2942 1.2192 0.1266 
v -1.2942 -1.2192 1.15 
v -1.2192 -1.2192 1.15 
v -1.2192 -1.2942 1.15 
v -1.2192 -1.2942 0.1266 
v 1.2192 -1.2942 0.1266 
v 1.2192 -1.2942 1.15 
v 1.2192 -1.2192 1.15 
v -1.2942 1.2192 1.15 
v 1.2942 1.2192 1.15 
v 1.2942 -1.2192 1.15 
v 1.2942 -1.2192 0.1266 
v 1.2942 1.2192 0.1266 
v 1.2942 -1.2942 1.25 
v -1.2942 -1.2942 1.25 
v -1.2942 -1.2942 -0.1 
v 1.2942 -1.2942 -0.1 
v 1.2942 1.2942 1.25 
v 1.2942 1.2942 -0.1 
v -1.2942 1.2942 1.25 
v -1.2942 1.2942 -0.1 
v -1.175 -1.175 0.1016 
v 1.175 -1.175 0.1016 
v 1.175 1.175 0.1016 
v -1.175 1.175 0.1016 
v -1.175 -1.175 0 
v -1.175 1.175 0 
v 1.175 -1.175 0 
v 1.175 1.175 0 
v 1.27388 1.27388 1.25 
v -1.27388 1.27388 1.25 
v -1.27388 -1.27388 1.25 
v 1.27388 -1.27388 1.25 
v 1.27388 1.27388 1.3024 
v 1.27388 -1.27388 1.3024 
v -1.27388 1.27388 1.3024 
v -1.27388 -1.27388 1.3024 
v -1.1392 1.2192 1.07 
v -0.08 1.2192 1.07 
v -1.1392 1.2192 0.2066 
v 1.1392 1.2192 1.07 
v 1.1392 1.2192 0.2066 
v -0.08 1.2192 0.2066 
v 0.08 1.2192 1.07 
v 0.08 1.2192 0.2066 
v -0.08 1.2942 0.2066 
v 0.08 1.2942 0.2066 
v 0.08 1.2942 1.07 
v -0.08 1.2942 1.07 
v 1.1392 1.2942 1.07 
v 1.1392 1.2942 0.2066 
v -1.1392 1.2942 0.2066 
v -1.1392 1.2942 1.07 
vn -1 -1.82123e-16 0 
vn 0 1 0 
vn 1 1.82123e-16 0 
vn 0 0 1 
vn -6.12323e-17 1 -6.12323e-17 
vn 1 1.82123e-16 0 
vn 0 0 1 
vn -1 -1.82123e-16 0 
vn 0 0 -1 
vn 0 0 1 
vn -6.12323e-17 1 -6.12323e-17 
vn 0 -1 0 
vn 1 0 0 
vn -1 0 0 
vn 0 0 -1 
vn 0 0 1 
vn 1 1.88974e-16 0 
vn 0 1 0 
vn -1 -1.88974e-16 0 
vn 0 -1 0 
vn 0 0 1 
vn 1 0 0 
vn 0 1 0 
vn -1 0 0 
vn 0 -1 0 
vn 0 0 1 
vn 0 1 0 
vn -1 0 0 
vn 1 0 0 
vn 1.04817e-16 0 1 
vn 0 0 -1 
vn 1 0 -6.42937e-17 
vn -1 0 6.42937e-17 
usemtl 0.301961_0.301961_0.301961_0.000000_0.000000
o mesh0
f 1//1 2//1 3//1 
f 3//1 4//1 1//1 
o mesh1
f 5//2 6//2 2//2 
f 2//2 1//2 5//2 
o mesh2
f 5//3 7//3 8//3 
f 8//3 6//3 5//3 
o mesh3
f 9//4 6//4 8//4 
f 8//4 10//4 9//4 
o mesh4
f 11//5 12//5 6//5 
f 6//5 9//5 11//5 
o mesh5
f 13//6 14//6 6//6 
f 6//6 12//6 13//6 
o mesh6
f 14//7 15//7 2//7 
f 2//7 6//7 14//7 
o mesh7
f 16//8 17//8 2//8 
f 2//8 15//8 16//8 
o mesh8
f 18//9 17//9 12//9 
f 13//9 12//9 17//9 
f 17//9 16//9 13//9 
f 19//9 20//9 17//9 
f 17//9 18//9 19//9 
f 12//9 11//9 18//9 
o mesh9
f 21//10 22//10 3//10 
f 3//10 2//10 21//10 
o mesh10
f 20//11 21//11 2//11 
f 2//11 17//11 20//11 
o mesh11
f 23//12 16//12 15//12 
f 23//12 24//12 13//12 
f 24//12 25//12 14//12 
f 25//12 26//12 15//12 
f 13//12 16//12 23//12 
f 15//12 14//12 25//12 
f 14//12 13//12 24//12 
f 15//12 26//12 23//12 
o mesh12
f 27//13 19//13 22//13 
f 27//13 23//13 20//13 
f 23//13 26//13 21//13 
f 26//13 28//13 22//13 
f 20//13 19//13 27//13 
f 22//13 21//13 26//13 
f 21//13 20//13 23//13 
f 22//13 28//13 27//13 
o mesh13
f 24//14 29//14 18//14 
f 29//14 30//14 10//14 
f 10//14 18//14 29//14 
f 30//14 25//14 9//14 
f 9//14 10//14 30//14 
f 24//14 11//14 9//14 
f 9//14 25//14 24//14 
f 18//14 11//14 24//14 
o mesh14
f 28//15 26//15 25//15 
f 25//15 30//15 28//15 
o mesh15
f 7//16 5//16 31//16 
f 5//16 1//16 32//16 
f 32//16 31//16 5//16 
f 1//16 4//16 33//16 
f 4//16 7//16 34//16 
f 33//16 32//16 1//16 
f 31//16 34//16 7//16 
f 34//16 33//16 4//16 
o mesh16
f 31//17 35//17 36//17 
f 36//17 34//17 31//17 
o mesh17
f 32//18 37//18 35//18 
f 35//18 31//18 32//18 
o mesh18
f 33//19 38//19 37//19 
f 37//19 32//19 33//19 
o mesh19
f 34//20 36//20 38//20 
f 38//20 33//20 34//20 
o mesh20
f 38//21 36//21 35//21 
f 35//21 37//21 38//21 
o mesh21
f 23//21 27//21 39//21 
f 27//21 29//21 40//21 
f 40//21 39//21 27//21 
f 29//21 24//21 41//21 
f 41//21 40//21 29//21 
f 24//21 23//21 42//21 
f 42//21 41//21 24//21 
f 39//21 42//21 23//21 
o mesh22
f 43//22 44//22 42//22 
f 42//22 39//22 43//22 
o mesh23
f 43//23 39//23 40//23 
f 40//23 45//23 43//23 
o mesh24
f 45//24 40//24 41//24 
f 41//24 46//24 45//24 
o mesh25
f 44//25 46//25 41//25 
f 41//25 42//25 44//25 
o mesh26
f 46//26 44//26 43//26 
f 43//26 45//26 46//26 
o mesh27
f 18//25 47//25 48//25 
f 18//25 8//25 49//25 
f 19//25 50//25 51//25 
f 7//25 52//25 49//25 
f 48//25 53//25 18//25 
f 18//25 10//25 8//25 
f 51//25 3//25 19//25 
f 19//25 18//25 53//25 
f 7//25 4//25 52//25 
f 49//25 47//25 18//25 
f 4//25 3//25 51//25 
f 53//25 50//25 19//25 
f 48//25 54//25 53//25 
f 51//25 54//25 4//25 
f 49//25 8//25 7//25 
f 54//25 52//25 4//25 
f 54//25 48//25 52//25 
f 3//25 22//25 19//25 
o mesh28
f 28//27 55//27 56//27 
f 57//27 56//27 55//27 
f 55//27 58//27 57//27 
f 27//27 59//27 57//27 
f 29//27 27//27 58//27 
f 57//27 58//27 27//27 
f 56//27 60//27 28//27 
f 30//27 61//27 55//27 
f 55//27 28//27 30//27 
f 29//27 62//27 61//27 
f 27//27 28//27 60//27 
f 61//27 30//27 29//27 
f 58//27 62//27 29//27 
f 60//27 59//27 27//27 
o mesh29
f 60//28 51//28 50//28 
f 50//28 59//28 60//28 
o mesh30
f 61//29 62//29 47//29 
f 47//29 49//29 61//29 
o mesh31
f 55//30 61//30 49//30 
f 49//30 52//30 55//30 
o mesh32
f 56//30 54//30 51//30 
f 51//30 60//30 56//30 
o mesh33
f 57//31 59//31 50//31 
f 50//31 53//31 57//31 
o mesh34
f 56//32 57//32 53//32 
f 53//32 54//32 56//32 
o mesh35
f 62//31 58//31 48//31 
f 48//31 47//31 62//31 
o mesh36
f 55//33 52//33 48//33 
f 48//33 58//33 55//33 
