# File units = meters
mtllib Field.mtl
g Field
v 1.2192 1.2942 1.15 
v 1.2192 1.2942 0.1266 
v 1.2192 1.2192 0.1266 
v 1.2192 1.2192 1.15 
v -1.2192 1.2942 0.1266 
v -1.2192 1.2192 0.1266 
v -1.2192 1.2942 1.15 
v -1.2192 1.2192 1.15 
v -1.2942 1.2192 0.1266 
v -1.2942 1.2192 1.15 
v -1.2942 -1.2192 0.1266 
v -1.2192 -1.2192 0.1266 
v -1.2942 -1.2192 1.15 
v -1.2192 -1.2192 1.15 
v -1.2192 -1.2192 0.1016 
v -1.2192 1.2192 0.1016 
v 1.2192 1.2192 0.1016 
v 1.2192 -1.2192 0.1016 
v 1.2192 -1.2192 0.1266 
v -1.2192 -1.2942 1.15 
v -1.2192 -1.2942 0.1266 
v 1.2192 -1.2942 0.1266 
v 1.2192 -1.2942 1.15 
v 1.2192 -1.2192 1.15 
v 1.2942 -1.2192 1.15 
v 1.2942 1.2192 1.15 
v 1.2942 1.2192 0.1266 
v 1.2942 -1.2192 0.1266 
v -1.175 -1.175 0.1016 
v 1.175 -1.175 0.1016 
v 1.175 1.175 0.1016 
v -1.175 1.175 0.1016 
v -1.175 1.175 0 
v 1.175 1.175 0 
v -1.175 -1.175 0 
v 1.175 -1.175 0 
v -1.2942 -1.2942 -1 
v -1.2942 -1.1442 -0.1 
v -1.2942 -1.2942 1.25 
v -1.2942 1.2942 1.25 
v -1.2942 1.2942 -1 
v -1.2942 1.1442 -1 
v -1.2942 1.1442 -0.1 
v -1.2942 -1.1442 -1 
v 1.2942 -1.2942 1.25 
v 1.2942 1.2942 1.25 
v -1.1442 -1.1442 -1 
v -1.1442 -1.2942 -1 
v -1.1442 -1.1442 -0.1 
v -1.1442 -1.2942 -0.1 
v -1.1442 1.2942 -1 
v -1.1442 1.1442 -1 
v -1.1442 1.1442 -0.1 
v -1.1442 1.2942 -0.1 
v 1.2942 1.2942 -1 
v 1.1442 1.2942 -1 
v 1.1442 1.2942 -0.1 
v 1.2942 1.1442 -1 
v 1.1442 1.1442 -1 
v 1.2942 1.1442 -0.1 
v 1.1442 1.1442 -0.1 
v 1.2942 -1.2942 -1 
v 1.2942 -1.1442 -0.1 
v 1.2942 -1.1442 -1 
v 1.1442 -1.2942 -0.1 
v 1.1442 -1.2942 -1 
v 1.1442 -1.1442 -0.1 
v 1.1442 -1.1442 -1 
vn -1 0 -6.12323e-17 
vn 0 0 1 
vn 1 0 6.12323e-17 
vn 6.12323e-17 -1 6.12323e-17 
vn 0 0 1 
vn -6.12323e-17 1 -6.12323e-17 
vn 1 0 6.12323e-17 
vn 0 -1 0 
vn -1 0 -6.12323e-17 
vn 0 1 0 
vn 1 0 6.12323e-17 
vn 0 0 1 
vn -1 0 -6.12323e-17 
vn 0 0 -1 
vn 6.12323e-17 -1 6.12323e-17 
vn 0 0 1 
vn -6.12323e-17 1 -6.12323e-17 
vn 0 -1 0 
vn 0 0 1 
vn -1 -1.88974e-16 0 
vn 0 1 0 
vn 1 1.88974e-16 0 
vn -1 0 0 
vn 0 0 1 
vn 0 0 -1 
vn 1 0 0 
vn 0 1 0 
vn 0 0 -1 
vn 0 -1 0 
vn 1 0 0 
vn 0 1 0 
vn 0 0 -1 
vn 0 -1 0 
vn -1 0 0 
vn 1 0 0 
vn 0 -1 0 
vn 0 0 -1 
vn 0 1 0 
vn -1 0 0 
usemtl 0.980392_0.713725_0.003922_0.000000_0.000000
o mesh0
f 1//1 2//1 3//1 
f 3//1 4//1 1//1 
o mesh1
f 5//2 6//2 3//2 
f 3//2 2//2 5//2 
o mesh2
f 5//3 7//3 8//3 
f 8//3 6//3 5//3 
o mesh3
f 9//4 6//4 8//4 
f 8//4 10//4 9//4 
o mesh4
f 11//5 12//5 6//5 
f 6//5 9//5 11//5 
o mesh5
f 13//6 14//6 12//6 
f 12//6 11//6 13//6 
o mesh6
f 15//7 16//7 6//7 
f 6//7 12//7 15//7 
o mesh7
f 16//8 17//8 3//8 
f 3//8 6//8 16//8 
o mesh8
f 17//9 18//9 19//9 
f 19//9 3//9 17//9 
o mesh9
f 15//10 12//10 19//10 
f 19//10 18//10 15//10 
o mesh10
f 20//11 21//11 12//11 
f 12//11 14//11 20//11 
o mesh11
f 21//12 22//12 19//12 
f 19//12 12//12 21//12 
o mesh12
f 22//13 23//13 24//13 
f 24//13 19//13 22//13 
o mesh13
f 1//14 4//14 8//14 
f 20//14 14//14 24//14 
f 4//14 14//14 8//14 
f 10//14 8//14 14//14 
f 14//14 4//14 24//14 
f 25//14 24//14 4//14 
f 14//14 13//14 10//14 
f 4//14 26//14 25//14 
f 24//14 23//14 20//14 
f 8//14 7//14 1//14 
o mesh14
f 26//15 4//15 3//15 
f 3//15 27//15 26//15 
o mesh15
f 27//16 3//16 19//16 
f 19//16 28//16 27//16 
o mesh16
f 28//17 19//17 24//17 
f 24//17 25//17 28//17 
o mesh17
f 16//16 15//16 29//16 
f 15//16 18//16 30//16 
f 30//16 29//16 15//16 
f 18//16 17//16 31//16 
f 17//16 16//16 32//16 
f 31//16 30//16 18//16 
f 29//16 32//16 16//16 
f 32//16 31//16 17//16 
o mesh18
f 32//18 33//18 34//18 
f 34//18 31//18 32//18 
o mesh19
f 34//19 33//19 35//19 
f 35//19 36//19 34//19 
o mesh20
f 31//20 34//20 36//20 
f 36//20 30//20 31//20 
o mesh21
f 30//21 36//21 35//21 
f 35//21 29//21 30//21 
o mesh22
f 29//22 35//22 33//22 
f 33//22 32//22 29//22 
o mesh23
f 37//23 11//23 38//23 
f 39//23 13//23 11//23 
f 40//23 41//23 9//23 
f 41//23 42//23 43//23 
f 11//23 37//23 39//23 
f 11//23 9//23 43//23 
f 39//23 40//23 10//23 
f 43//23 9//23 41//23 
f 43//23 38//23 11//23 
f 9//23 10//23 40//23 
f 10//23 13//23 39//23 
f 38//23 44//23 37//23 
o mesh24
f 39//24 45//24 46//24 
f 46//24 40//24 39//24 
o mesh25
f 37//25 44//25 47//25 
f 47//25 48//25 37//25 
o mesh26
f 47//26 49//26 50//26 
f 50//26 48//26 47//26 
o mesh27
f 38//27 49//27 47//27 
f 47//27 44//27 38//27 
o mesh28
f 41//28 51//28 52//28 
f 52//28 42//28 41//28 
o mesh29
f 52//29 53//29 43//29 
f 43//29 42//29 52//29 
o mesh30
f 51//30 54//30 53//30 
f 53//30 52//30 51//30 
o mesh31
f 41//31 5//31 54//31 
f 40//31 7//31 5//31 
f 46//31 55//31 2//31 
f 55//31 56//31 57//31 
f 5//31 41//31 40//31 
f 5//31 2//31 57//31 
f 40//31 46//31 1//31 
f 57//31 2//31 55//31 
f 57//31 54//31 5//31 
f 2//31 1//31 46//31 
f 1//31 7//31 40//31 
f 54//31 51//31 41//31 
o mesh32
f 56//32 55//32 58//32 
f 58//32 59//32 56//32 
o mesh33
f 58//33 60//33 61//33 
f 61//33 59//33 58//33 
o mesh34
f 61//34 57//34 56//34 
f 56//34 59//34 61//34 
o mesh35
f 46//35 26//35 27//35 
f 46//35 45//35 25//35 
f 25//35 26//35 46//35 
f 45//35 62//35 28//35 
f 27//35 28//35 63//35 
f 62//35 64//35 63//35 
f 28//35 25//35 45//35 
f 63//35 28//35 62//35 
f 55//35 27//35 60//35 
f 63//35 60//35 27//35 
f 27//35 55//35 46//35 
f 60//35 58//35 55//35 
o mesh36
f 45//36 23//36 22//36 
f 45//36 39//36 20//36 
f 20//36 23//36 45//36 
f 39//36 37//36 21//36 
f 22//36 21//36 50//36 
f 37//36 48//36 50//36 
f 21//36 20//36 39//36 
f 50//36 21//36 37//36 
f 62//36 22//36 65//36 
f 50//36 65//36 22//36 
f 22//36 62//36 45//36 
f 65//36 66//36 62//36 
o mesh37
f 43//37 53//37 49//37 
f 63//37 67//37 61//37 
f 53//37 67//37 49//37 
f 50//37 49//37 67//37 
f 67//37 53//37 61//37 
f 57//37 61//37 53//37 
f 67//37 65//37 50//37 
f 53//37 54//37 57//37 
f 61//37 60//37 63//37 
f 49//37 38//37 43//37 
o mesh38
f 66//37 68//37 64//37 
f 64//37 62//37 66//37 
o mesh39
f 67//38 63//38 64//38 
f 64//38 68//38 67//38 
o mesh40
f 65//39 67//39 68//39 
f 68//39 66//39 65//39 
