# File units = meters
mtllib Cage Corners.mtl
g Blue Corner
v -1.175 0.609315 0.001 
v -0.609315 1.175 0.001 
v -1.175 1.175 0.001 
v -1.175 1.175 0 
v -1.175 0.609315 0 
v -0.609315 1.175 0 
vn 0 0 1 
vn -1 -1.88974e-16 0 
vn 0.707107 -0.707107 0 
vn 0 1 0 
vn 0 0 -1 
usemtl 0.760784_0.839216_0.925490_0.000000_0.000000
o mesh0
f 1//1 2//1 3//1 
usemtl 0.615686_0.811765_0.929412_0.000000_0.000000
o mesh1
f 3//2 4//2 5//2 
f 5//2 1//2 3//2 
o mesh2
f 1//3 5//3 6//3 
f 6//3 2//3 1//3 
o mesh3
f 2//4 6//4 4//4 
f 4//4 3//4 2//4 
o mesh4
f 4//5 6//5 5//5 
g Red Corner
v 0.609315 -1.175 0.001 
v 1.175 -1.175 0.001 
v 1.175 -0.609315 0.001 
v 1.175 -0.609315 0 
v 0.609315 -1.175 0 
v 1.175 -1.175 0 
vn 0 0 1 
vn -0.707107 0.707107 0 
vn 0 -1 0 
vn 1 1.88974e-16 0 
vn 0 0 -1 
usemtl 0.874510_0.447059_0.317647_0.000000_0.000000
o mesh5
f 7//6 8//6 9//6 
usemtl 0.647059_0.647059_0.647059_0.000000_0.000000
o mesh6
f 9//7 10//7 11//7 
f 11//7 7//7 9//7 
o mesh7
f 7//8 11//8 12//8 
f 12//8 8//8 7//8 
o mesh8
f 8//9 12//9 10//9 
f 10//9 9//9 8//9 
o mesh9
f 10//10 12//10 11//10 
