<?xml version="1.0" encoding="utf-8" ?>
<svg baseProfile="tiny" height="100%" version="1.2" width="100%" xmlns="http://www.w3.org/2000/svg" xmlns:ev="http://www.w3.org/2001/xml-events" xmlns:xlink="http://www.w3.org/1999/xlink"><defs /><rect fill="rgb(255,255,255)" height="80.0" width="80.0" x="0" y="0" /><rect fill="rgb(0,0,0)" height="8.0" width="8.0" x="8.0" y="8.0" /><rect fill="rgb(0,0,0)" height="8.0" width="8.0" x="16.0" y="8.0" /><rect fill="rgb(0,0,0)" height="8.0" width="8.0" x="24.0" y="8.0" /><rect fill="rgb(0,0,0)" height="8.0" width="8.0" x="32.0" y="8.0" /><rect fill="rgb(0,0,0)" height="8.0" width="8.0" x="40.0" y="8.0" /><rect fill="rgb(0,0,0)" height="8.0" width="8.0" x="48.0" y="8.0" /><rect fill="rgb(0,0,0)" height="8.0" width="8.0" x="56.0" y="8.0" /><rect fill="rgb(0,0,0)" height="8.0" width="8.0" x="64.0" y="8.0" /><rect fill="rgb(0,0,0)" height="8.0" width="8.0" x="8.0" y="16.0" /><rect fill="rgb(0,0,0)" height="8.0" width="8.0" x="32.0" y="16.0" /><rect fill="rgb(0,0,0)" height="8.0" width="8.0" x="48.0" y="16.0" /><rect fill="rgb(0,0,0)" height="8.0" width="8.0" x="56.0" y="16.0" /><rect fill="rgb(0,0,0)" height="8.0" width="8.0" x="64.0" y="16.0" /><rect fill="rgb(0,0,0)" height="8.0" width="8.0" x="8.0" y="24.0" /><rect fill="rgb(0,0,0)" height="8.0" width="8.0" x="24.0" y="24.0" /><rect fill="rgb(0,0,0)" height="8.0" width="8.0" x="40.0" y="24.0" /><rect fill="rgb(0,0,0)" height="8.0" width="8.0" x="48.0" y="24.0" /><rect fill="rgb(0,0,0)" height="8.0" width="8.0" x="64.0" y="24.0" /><rect fill="rgb(0,0,0)" height="8.0" width="8.0" x="8.0" y="32.0" /><rect fill="rgb(0,0,0)" height="8.0" width="8.0" x="16.0" y="32.0" /><rect fill="rgb(0,0,0)" height="8.0" width="8.0" x="24.0" y="32.0" /><rect fill="rgb(0,0,0)" height="8.0" width="8.0" x="32.0" y="32.0" /><rect fill="rgb(0,0,0)" height="8.0" width="8.0" x="40.0" y="32.0" /><rect fill="rgb(0,0,0)" height="8.0" width="8.0" x="56.0" y="32.0" /><rect fill="rgb(0,0,0)" height="8.0" width="8.0" x="64.0" y="32.0" /><rect fill="rgb(0,0,0)" height="8.0" width="8.0" x="8.0" y="40.0" /><rect fill="rgb(0,0,0)" height="8.0" width="8.0" x="24.0" y="40.0" /><rect fill="rgb(0,0,0)" height="8.0" width="8.0" x="40.0" y="40.0" /><rect fill="rgb(0,0,0)" height="8.0" width="8.0" x="56.0" y="40.0" /><rect fill="rgb(0,0,0)" height="8.0" width="8.0" x="64.0" y="40.0" /><rect fill="rgb(0,0,0)" height="8.0" width="8.0" x="8.0" y="48.0" /><rect fill="rgb(0,0,0)" height="8.0" width="8.0" x="16.0" y="48.0" /><rect fill="rgb(0,0,0)" height="8.0" width="8.0" x="48.0" y="48.0" /><rect fill="rgb(0,0,0)" height="8.0" width="8.0" x="64.0" y="48.0" /><rect fill="rgb(0,0,0)" height="8.0" width="8.0" x="8.0" y="56.0" /><rect fill="rgb(0,0,0)" height="8.0" width="8.0" x="40.0" y="56.0" /><rect fill="rgb(0,0,0)" height="8.0" width="8.0" x="64.0" y="56.0" /><rect fill="rgb(0,0,0)" height="8.0" width="8.0" x="8.0" y="64.0" /><rect fill="rgb(0,0,0)" height="8.0" width="8.0" x="16.0" y="64.0" /><rect fill="rgb(0,0,0)" height="8.0" width="8.0" x="24.0" y="64.0" /><rect fill="rgb(0,0,0)" height="8.0" width="8.0" x="32.0" y="64.0" /><rect fill="rgb(0,0,0)" height="8.0" width="8.0" x="40.0" y="64.0" /><rect fill="rgb(0,0,0)" height="8.0" width="8.0" x="48.0" y="64.0" /><rect fill="rgb(0,0,0)" height="8.0" width="8.0" x="56.0" y="64.0" /><rect fill="rgb(0,0,0)" height="8.0" width="8.0" x="64.0" y="64.0" /></svg>